<?xml version="1.0" encoding="UTF-8" standalone="no"?>
<!-- Created with Inkscape (http://www.inkscape.org/) -->

<svg
   xmlns:dc="http://purl.org/dc/elements/1.1/"
   xmlns:cc="http://creativecommons.org/ns#"
   xmlns:rdf="http://www.w3.org/1999/02/22-rdf-syntax-ns#"
   xmlns:svg="http://www.w3.org/2000/svg"
   xmlns="http://www.w3.org/2000/svg"
   xmlns:sodipodi="http://sodipodi.sourceforge.net/DTD/sodipodi-0.dtd"
   xmlns:inkscape="http://www.inkscape.org/namespaces/inkscape"
   width="15.317869"
   height="177.31787"
   id="svg10099"
   version="1.1"
   inkscape:version="0.48.4 r9939"
   sodipodi:docname="SBCPin.svg">
  <defs
     id="defs3" />
  <sodipodi:namedview
     inkscape:document-units="in"
     id="base"
     pagecolor="#ffffff"
     bordercolor="#666666"
     borderopacity="1.0"
     inkscape:pageopacity="0.0"
     inkscape:pageshadow="2"
     inkscape:zoom="2.8"
     inkscape:cx="-13.802914"
     inkscape:cy="68.594021"
     inkscape:current-layer="layer1"
     showgrid="true"
     units="in"
     fit-margin-top="0"
     fit-margin-left="0"
     fit-margin-right="0"
     fit-margin-bottom="0"
     inkscape:window-width="1334"
     inkscape:window-height="750"
     inkscape:window-x="32"
     inkscape:window-y="18"
     inkscape:window-maximized="1">
    <inkscape:grid
       type="xygrid"
       id="grid10186"
       units="in"
       empspacing="10"
       visible="true"
       enabled="true"
       snapvisiblegridlinesonly="true"
       spacingx="0.01in"
       spacingy="0.01in"
       originx="-5in"
       originy="-6.9999295in" />
  </sodipodi:namedview>
  <metadata
     id="metadata4">
    <rdf:RDF>
      <cc:Work
         rdf:about="">
        <dc:format>image/svg+xml</dc:format>
        <dc:type
           rdf:resource="http://purl.org/dc/dcmitype/StillImage" />
        <dc:title></dc:title>
      </cc:Work>
    </rdf:RDF>
  </metadata>
  <g
     inkscape:label="Layer 1"
     inkscape:groupmode="layer"
     id="layer1"
     transform="translate(-450,-245.05046)">
    <path
       sodipodi:type="arc"
       style="fill:none;stroke:#000000;stroke-width:3.75;stroke-miterlimit:4;stroke-opacity:1;stroke-dasharray:none;stroke-dashoffset:0"
       id="path11479"
       sodipodi:cx="4.5"
       sodipodi:cy="1047.8622"
       sodipodi:rx="4.5"
       sodipodi:ry="4.5"
       d="m 9,1047.8622 c 0,2.4853 -2.0147186,4.5 -4.5,4.5 -2.4852814,0 -4.5,-2.0147 -4.5,-4.5 0,-2.4853 2.0147186,-4.5 4.5,-4.5 2.4852814,0 4.5,2.0147 4.5,4.5 z"
       transform="matrix(0.49411765,0,0,0.49411765,450.94434,-98.555206)" />
    <path
       transform="matrix(0.49411765,0,0,0.49411765,450.92648,-107.57307)"
       d="m 9,1047.8622 c 0,2.4853 -2.0147186,4.5 -4.5,4.5 -2.4852814,0 -4.5,-2.0147 -4.5,-4.5 0,-2.4853 2.0147186,-4.5 4.5,-4.5 2.4852814,0 4.5,2.0147 4.5,4.5 z"
       sodipodi:ry="4.5"
       sodipodi:rx="4.5"
       sodipodi:cy="1047.8622"
       sodipodi:cx="4.5"
       id="path11481"
       style="fill:none;stroke:#000000;stroke-width:3.75;stroke-miterlimit:4;stroke-opacity:1;stroke-dasharray:none;stroke-dashoffset:0"
       sodipodi:type="arc" />
    <path
       sodipodi:type="arc"
       style="fill:none;stroke:#000000;stroke-width:3.75;stroke-miterlimit:4;stroke-opacity:1;stroke-dasharray:none;stroke-dashoffset:0"
       id="path11483"
       sodipodi:cx="4.5"
       sodipodi:cy="1047.8622"
       sodipodi:rx="4.5"
       sodipodi:ry="4.5"
       d="m 9,1047.8622 c 0,2.4853 -2.0147186,4.5 -4.5,4.5 -2.4852814,0 -4.5,-2.0147 -4.5,-4.5 0,-2.4853 2.0147186,-4.5 4.5,-4.5 2.4852814,0 4.5,2.0147 4.5,4.5 z"
       transform="matrix(0.49411765,0,0,0.49411765,450.92648,-116.55521)" />
    <path
       transform="matrix(0.49411765,0,0,0.49411765,450.94434,-125.55521)"
       d="m 9,1047.8622 c 0,2.4853 -2.0147186,4.5 -4.5,4.5 -2.4852814,0 -4.5,-2.0147 -4.5,-4.5 0,-2.4853 2.0147186,-4.5 4.5,-4.5 2.4852814,0 4.5,2.0147 4.5,4.5 z"
       sodipodi:ry="4.5"
       sodipodi:rx="4.5"
       sodipodi:cy="1047.8622"
       sodipodi:cx="4.5"
       id="path11485"
       style="fill:none;stroke:#000000;stroke-width:3.75;stroke-miterlimit:4;stroke-opacity:1;stroke-dasharray:none;stroke-dashoffset:0"
       sodipodi:type="arc" />
    <path
       sodipodi:type="arc"
       style="fill:none;stroke:#000000;stroke-width:3.75;stroke-miterlimit:4;stroke-opacity:1;stroke-dasharray:none;stroke-dashoffset:0"
       id="path11487"
       sodipodi:cx="4.5"
       sodipodi:cy="1047.8622"
       sodipodi:rx="4.5"
       sodipodi:ry="4.5"
       d="m 9,1047.8622 c 0,2.4853 -2.0147186,4.5 -4.5,4.5 -2.4852814,0 -4.5,-2.0147 -4.5,-4.5 0,-2.4853 2.0147186,-4.5 4.5,-4.5 2.4852814,0 4.5,2.0147 4.5,4.5 z"
       transform="matrix(0.49411765,0,0,0.49411765,450.92648,-134.57307)" />
    <path
       transform="matrix(0.49411765,0,0,0.49411765,450.92648,-143.55521)"
       d="m 9,1047.8622 c 0,2.4853 -2.0147186,4.5 -4.5,4.5 -2.4852814,0 -4.5,-2.0147 -4.5,-4.5 0,-2.4853 2.0147186,-4.5 4.5,-4.5 2.4852814,0 4.5,2.0147 4.5,4.5 z"
       sodipodi:ry="4.5"
       sodipodi:rx="4.5"
       sodipodi:cy="1047.8622"
       sodipodi:cx="4.5"
       id="path11489"
       style="fill:none;stroke:#000000;stroke-width:3.75;stroke-miterlimit:4;stroke-opacity:1;stroke-dasharray:none;stroke-dashoffset:0"
       sodipodi:type="arc" />
    <path
       transform="matrix(0.49411765,0,0,0.49411765,450.94434,-152.55521)"
       d="m 9,1047.8622 c 0,2.4853 -2.0147186,4.5 -4.5,4.5 -2.4852814,0 -4.5,-2.0147 -4.5,-4.5 0,-2.4853 2.0147186,-4.5 4.5,-4.5 2.4852814,0 4.5,2.0147 4.5,4.5 z"
       sodipodi:ry="4.5"
       sodipodi:rx="4.5"
       sodipodi:cy="1047.8622"
       sodipodi:cx="4.5"
       id="path11491"
       style="fill:none;stroke:#000000;stroke-width:3.75;stroke-miterlimit:4;stroke-opacity:1;stroke-dasharray:none;stroke-dashoffset:0"
       sodipodi:type="arc" />
    <path
       sodipodi:type="arc"
       style="fill:none;stroke:#000000;stroke-width:3.75;stroke-miterlimit:4;stroke-opacity:1;stroke-dasharray:none;stroke-dashoffset:0"
       id="path11493"
       sodipodi:cx="4.5"
       sodipodi:cy="1047.8622"
       sodipodi:rx="4.5"
       sodipodi:ry="4.5"
       d="m 9,1047.8622 c 0,2.4853 -2.0147186,4.5 -4.5,4.5 -2.4852814,0 -4.5,-2.0147 -4.5,-4.5 0,-2.4853 2.0147186,-4.5 4.5,-4.5 2.4852814,0 4.5,2.0147 4.5,4.5 z"
       transform="matrix(0.49411765,0,0,0.49411765,450.92648,-161.57307)" />
    <path
       transform="matrix(0.49411765,0,0,0.49411765,450.92648,-170.55521)"
       d="m 9,1047.8622 c 0,2.4853 -2.0147186,4.5 -4.5,4.5 -2.4852814,0 -4.5,-2.0147 -4.5,-4.5 0,-2.4853 2.0147186,-4.5 4.5,-4.5 2.4852814,0 4.5,2.0147 4.5,4.5 z"
       sodipodi:ry="4.5"
       sodipodi:rx="4.5"
       sodipodi:cy="1047.8622"
       sodipodi:cx="4.5"
       id="path11495"
       style="fill:none;stroke:#000000;stroke-width:3.75;stroke-miterlimit:4;stroke-opacity:1;stroke-dasharray:none;stroke-dashoffset:0"
       sodipodi:type="arc" />
    <path
       sodipodi:type="arc"
       style="fill:none;stroke:#000000;stroke-width:3.75;stroke-miterlimit:4;stroke-opacity:1;stroke-dasharray:none;stroke-dashoffset:0"
       id="path11497"
       sodipodi:cx="4.5"
       sodipodi:cy="1047.8622"
       sodipodi:rx="4.5"
       sodipodi:ry="4.5"
       d="m 9,1047.8622 c 0,2.4853 -2.0147186,4.5 -4.5,4.5 -2.4852814,0 -4.5,-2.0147 -4.5,-4.5 0,-2.4853 2.0147186,-4.5 4.5,-4.5 2.4852814,0 4.5,2.0147 4.5,4.5 z"
       transform="matrix(0.49411765,0,0,0.49411765,450.94434,-179.55521)" />
    <path
       transform="matrix(0.49411765,0,0,0.49411765,450.92648,-188.57308)"
       d="m 9,1047.8622 c 0,2.4853 -2.0147186,4.5 -4.5,4.5 -2.4852814,0 -4.5,-2.0147 -4.5,-4.5 0,-2.4853 2.0147186,-4.5 4.5,-4.5 2.4852814,0 4.5,2.0147 4.5,4.5 z"
       sodipodi:ry="4.5"
       sodipodi:rx="4.5"
       sodipodi:cy="1047.8622"
       sodipodi:cx="4.5"
       id="path11499"
       style="fill:none;stroke:#000000;stroke-width:3.75;stroke-miterlimit:4;stroke-opacity:1;stroke-dasharray:none;stroke-dashoffset:0"
       sodipodi:type="arc" />
    <path
       sodipodi:type="arc"
       style="fill:none;stroke:#000000;stroke-width:3.75;stroke-miterlimit:4;stroke-opacity:1;stroke-dasharray:none;stroke-dashoffset:0"
       id="path11501"
       sodipodi:cx="4.5"
       sodipodi:cy="1047.8622"
       sodipodi:rx="4.5"
       sodipodi:ry="4.5"
       d="m 9,1047.8622 c 0,2.4853 -2.0147186,4.5 -4.5,4.5 -2.4852814,0 -4.5,-2.0147 -4.5,-4.5 0,-2.4853 2.0147186,-4.5 4.5,-4.5 2.4852814,0 4.5,2.0147 4.5,4.5 z"
       transform="matrix(0.49411765,0,0,0.49411765,450.92648,-197.55522)" />
    <path
       transform="matrix(0.49411765,0,0,0.49411765,450.94434,-206.55522)"
       d="m 9,1047.8622 c 0,2.4853 -2.0147186,4.5 -4.5,4.5 -2.4852814,0 -4.5,-2.0147 -4.5,-4.5 0,-2.4853 2.0147186,-4.5 4.5,-4.5 2.4852814,0 4.5,2.0147 4.5,4.5 z"
       sodipodi:ry="4.5"
       sodipodi:rx="4.5"
       sodipodi:cy="1047.8622"
       sodipodi:cx="4.5"
       id="path11503"
       style="fill:none;stroke:#000000;stroke-width:3.75;stroke-miterlimit:4;stroke-opacity:1;stroke-dasharray:none;stroke-dashoffset:0"
       sodipodi:type="arc" />
    <path
       sodipodi:type="arc"
       style="fill:none;stroke:#000000;stroke-width:3.75;stroke-miterlimit:4;stroke-opacity:1;stroke-dasharray:none;stroke-dashoffset:0"
       id="path11505"
       sodipodi:cx="4.5"
       sodipodi:cy="1047.8622"
       sodipodi:rx="4.5"
       sodipodi:ry="4.5"
       d="m 9,1047.8622 c 0,2.4853 -2.0147186,4.5 -4.5,4.5 -2.4852814,0 -4.5,-2.0147 -4.5,-4.5 0,-2.4853 2.0147186,-4.5 4.5,-4.5 2.4852814,0 4.5,2.0147 4.5,4.5 z"
       transform="matrix(0.49411765,0,0,0.49411765,450.92648,-215.57308)" />
    <path
       transform="matrix(0.49411765,0,0,0.49411765,450.92648,-224.55522)"
       d="m 9,1047.8622 c 0,2.4853 -2.0147186,4.5 -4.5,4.5 -2.4852814,0 -4.5,-2.0147 -4.5,-4.5 0,-2.4853 2.0147186,-4.5 4.5,-4.5 2.4852814,0 4.5,2.0147 4.5,4.5 z"
       sodipodi:ry="4.5"
       sodipodi:rx="4.5"
       sodipodi:cy="1047.8622"
       sodipodi:cx="4.5"
       id="path11507"
       style="fill:none;stroke:#000000;stroke-width:3.75;stroke-miterlimit:4;stroke-opacity:1;stroke-dasharray:none;stroke-dashoffset:0"
       sodipodi:type="arc" />
    <path
       sodipodi:type="arc"
       style="fill:none;stroke:#000000;stroke-width:3.75;stroke-miterlimit:4;stroke-opacity:1;stroke-dasharray:none;stroke-dashoffset:0"
       id="path11509"
       sodipodi:cx="4.5"
       sodipodi:cy="1047.8622"
       sodipodi:rx="4.5"
       sodipodi:ry="4.5"
       d="m 9,1047.8622 c 0,2.4853 -2.0147186,4.5 -4.5,4.5 -2.4852814,0 -4.5,-2.0147 -4.5,-4.5 0,-2.4853 2.0147186,-4.5 4.5,-4.5 2.4852814,0 4.5,2.0147 4.5,4.5 z"
       transform="matrix(0.49411765,0,0,0.49411765,450.94434,-233.55522)" />
    <path
       transform="matrix(0.49411765,0,0,0.49411765,450.92648,-242.57308)"
       d="m 9,1047.8622 c 0,2.4853 -2.0147186,4.5 -4.5,4.5 -2.4852814,0 -4.5,-2.0147 -4.5,-4.5 0,-2.4853 2.0147186,-4.5 4.5,-4.5 2.4852814,0 4.5,2.0147 4.5,4.5 z"
       sodipodi:ry="4.5"
       sodipodi:rx="4.5"
       sodipodi:cy="1047.8622"
       sodipodi:cx="4.5"
       id="path11511"
       style="fill:none;stroke:#000000;stroke-width:3.75;stroke-miterlimit:4;stroke-opacity:1;stroke-dasharray:none;stroke-dashoffset:0"
       sodipodi:type="arc" />
    <path
       sodipodi:type="arc"
       style="fill:none;stroke:#000000;stroke-width:3.75;stroke-miterlimit:4;stroke-opacity:1;stroke-dasharray:none;stroke-dashoffset:0"
       id="path11513"
       sodipodi:cx="4.5"
       sodipodi:cy="1047.8622"
       sodipodi:rx="4.5"
       sodipodi:ry="4.5"
       d="m 9,1047.8622 c 0,2.4853 -2.0147186,4.5 -4.5,4.5 -2.4852814,0 -4.5,-2.0147 -4.5,-4.5 0,-2.4853 2.0147186,-4.5 4.5,-4.5 2.4852814,0 4.5,2.0147 4.5,4.5 z"
       transform="matrix(0.49411765,0,0,0.49411765,450.92648,-251.55522)" />
    <path
       sodipodi:type="arc"
       style="fill:none;stroke:#000000;stroke-width:3.75;stroke-miterlimit:4;stroke-opacity:1;stroke-dasharray:none;stroke-dashoffset:0"
       id="path11515"
       sodipodi:cx="4.5"
       sodipodi:cy="1047.8622"
       sodipodi:rx="4.5"
       sodipodi:ry="4.5"
       d="m 9,1047.8622 c 0,2.4853 -2.0147186,4.5 -4.5,4.5 -2.4852814,0 -4.5,-2.0147 -4.5,-4.5 0,-2.4853 2.0147186,-4.5 4.5,-4.5 2.4852814,0 4.5,2.0147 4.5,4.5 z"
       transform="matrix(0.49411765,0,0,0.49411765,450.94434,-260.55521)" />
    <path
       transform="matrix(0.49411765,0,0,0.49411765,450.92648,-269.57307)"
       d="m 9,1047.8622 c 0,2.4853 -2.0147186,4.5 -4.5,4.5 -2.4852814,0 -4.5,-2.0147 -4.5,-4.5 0,-2.4853 2.0147186,-4.5 4.5,-4.5 2.4852814,0 4.5,2.0147 4.5,4.5 z"
       sodipodi:ry="4.5"
       sodipodi:rx="4.5"
       sodipodi:cy="1047.8622"
       sodipodi:cx="4.5"
       id="path11517"
       style="fill:none;stroke:#000000;stroke-width:3.75;stroke-miterlimit:4;stroke-opacity:1;stroke-dasharray:none;stroke-dashoffset:0"
       sodipodi:type="arc" />
    <rect
       style="fill:none;stroke:#000000;stroke-width:1.71300614;stroke-linecap:butt;stroke-linejoin:miter;stroke-miterlimit:4;stroke-opacity:1;stroke-dasharray:none;stroke-dashoffset:0"
       id="rect11519"
       width="4.5869937"
       height="4.5869937"
       x="450.85651"
       y="245.91849" />
    <path
       transform="matrix(0.49411765,0,0,0.49411765,459.94434,-98.555206)"
       d="m 9,1047.8622 c 0,2.4853 -2.0147186,4.5 -4.5,4.5 -2.4852814,0 -4.5,-2.0147 -4.5,-4.5 0,-2.4853 2.0147186,-4.5 4.5,-4.5 2.4852814,0 4.5,2.0147 4.5,4.5 z"
       sodipodi:ry="4.5"
       sodipodi:rx="4.5"
       sodipodi:cy="1047.8622"
       sodipodi:cx="4.5"
       id="path11521"
       style="fill:none;stroke:#000000;stroke-width:3.75;stroke-miterlimit:4;stroke-opacity:1;stroke-dasharray:none;stroke-dashoffset:0"
       sodipodi:type="arc" />
    <path
       sodipodi:type="arc"
       style="fill:none;stroke:#000000;stroke-width:3.75;stroke-miterlimit:4;stroke-opacity:1;stroke-dasharray:none;stroke-dashoffset:0"
       id="path11523"
       sodipodi:cx="4.5"
       sodipodi:cy="1047.8622"
       sodipodi:rx="4.5"
       sodipodi:ry="4.5"
       d="m 9,1047.8622 c 0,2.4853 -2.0147186,4.5 -4.5,4.5 -2.4852814,0 -4.5,-2.0147 -4.5,-4.5 0,-2.4853 2.0147186,-4.5 4.5,-4.5 2.4852814,0 4.5,2.0147 4.5,4.5 z"
       transform="matrix(0.49411765,0,0,0.49411765,459.92648,-107.57307)" />
    <path
       transform="matrix(0.49411765,0,0,0.49411765,459.92648,-116.55521)"
       d="m 9,1047.8622 c 0,2.4853 -2.0147186,4.5 -4.5,4.5 -2.4852814,0 -4.5,-2.0147 -4.5,-4.5 0,-2.4853 2.0147186,-4.5 4.5,-4.5 2.4852814,0 4.5,2.0147 4.5,4.5 z"
       sodipodi:ry="4.5"
       sodipodi:rx="4.5"
       sodipodi:cy="1047.8622"
       sodipodi:cx="4.5"
       id="path11525"
       style="fill:none;stroke:#000000;stroke-width:3.75;stroke-miterlimit:4;stroke-opacity:1;stroke-dasharray:none;stroke-dashoffset:0"
       sodipodi:type="arc" />
    <path
       sodipodi:type="arc"
       style="fill:none;stroke:#000000;stroke-width:3.75;stroke-miterlimit:4;stroke-opacity:1;stroke-dasharray:none;stroke-dashoffset:0"
       id="path11527"
       sodipodi:cx="4.5"
       sodipodi:cy="1047.8622"
       sodipodi:rx="4.5"
       sodipodi:ry="4.5"
       d="m 9,1047.8622 c 0,2.4853 -2.0147186,4.5 -4.5,4.5 -2.4852814,0 -4.5,-2.0147 -4.5,-4.5 0,-2.4853 2.0147186,-4.5 4.5,-4.5 2.4852814,0 4.5,2.0147 4.5,4.5 z"
       transform="matrix(0.49411765,0,0,0.49411765,459.94434,-125.55521)" />
    <path
       transform="matrix(0.49411765,0,0,0.49411765,459.92648,-134.57307)"
       d="m 9,1047.8622 c 0,2.4853 -2.0147186,4.5 -4.5,4.5 -2.4852814,0 -4.5,-2.0147 -4.5,-4.5 0,-2.4853 2.0147186,-4.5 4.5,-4.5 2.4852814,0 4.5,2.0147 4.5,4.5 z"
       sodipodi:ry="4.5"
       sodipodi:rx="4.5"
       sodipodi:cy="1047.8622"
       sodipodi:cx="4.5"
       id="path11529"
       style="fill:none;stroke:#000000;stroke-width:3.75;stroke-miterlimit:4;stroke-opacity:1;stroke-dasharray:none;stroke-dashoffset:0"
       sodipodi:type="arc" />
    <path
       sodipodi:type="arc"
       style="fill:none;stroke:#000000;stroke-width:3.75;stroke-miterlimit:4;stroke-opacity:1;stroke-dasharray:none;stroke-dashoffset:0"
       id="path11531"
       sodipodi:cx="4.5"
       sodipodi:cy="1047.8622"
       sodipodi:rx="4.5"
       sodipodi:ry="4.5"
       d="m 9,1047.8622 c 0,2.4853 -2.0147186,4.5 -4.5,4.5 -2.4852814,0 -4.5,-2.0147 -4.5,-4.5 0,-2.4853 2.0147186,-4.5 4.5,-4.5 2.4852814,0 4.5,2.0147 4.5,4.5 z"
       transform="matrix(0.49411765,0,0,0.49411765,459.92648,-143.55521)" />
    <path
       sodipodi:type="arc"
       style="fill:none;stroke:#000000;stroke-width:3.75;stroke-miterlimit:4;stroke-opacity:1;stroke-dasharray:none;stroke-dashoffset:0"
       id="path11533"
       sodipodi:cx="4.5"
       sodipodi:cy="1047.8622"
       sodipodi:rx="4.5"
       sodipodi:ry="4.5"
       d="m 9,1047.8622 c 0,2.4853 -2.0147186,4.5 -4.5,4.5 -2.4852814,0 -4.5,-2.0147 -4.5,-4.5 0,-2.4853 2.0147186,-4.5 4.5,-4.5 2.4852814,0 4.5,2.0147 4.5,4.5 z"
       transform="matrix(0.49411765,0,0,0.49411765,459.94434,-152.55521)" />
    <path
       transform="matrix(0.49411765,0,0,0.49411765,459.92648,-161.57307)"
       d="m 9,1047.8622 c 0,2.4853 -2.0147186,4.5 -4.5,4.5 -2.4852814,0 -4.5,-2.0147 -4.5,-4.5 0,-2.4853 2.0147186,-4.5 4.5,-4.5 2.4852814,0 4.5,2.0147 4.5,4.5 z"
       sodipodi:ry="4.5"
       sodipodi:rx="4.5"
       sodipodi:cy="1047.8622"
       sodipodi:cx="4.5"
       id="path11535"
       style="fill:none;stroke:#000000;stroke-width:3.75;stroke-miterlimit:4;stroke-opacity:1;stroke-dasharray:none;stroke-dashoffset:0"
       sodipodi:type="arc" />
    <path
       sodipodi:type="arc"
       style="fill:none;stroke:#000000;stroke-width:3.75;stroke-miterlimit:4;stroke-opacity:1;stroke-dasharray:none;stroke-dashoffset:0"
       id="path11537"
       sodipodi:cx="4.5"
       sodipodi:cy="1047.8622"
       sodipodi:rx="4.5"
       sodipodi:ry="4.5"
       d="m 9,1047.8622 c 0,2.4853 -2.0147186,4.5 -4.5,4.5 -2.4852814,0 -4.5,-2.0147 -4.5,-4.5 0,-2.4853 2.0147186,-4.5 4.5,-4.5 2.4852814,0 4.5,2.0147 4.5,4.5 z"
       transform="matrix(0.49411765,0,0,0.49411765,459.92648,-170.55521)" />
    <path
       transform="matrix(0.49411765,0,0,0.49411765,459.94434,-179.55521)"
       d="m 9,1047.8622 c 0,2.4853 -2.0147186,4.5 -4.5,4.5 -2.4852814,0 -4.5,-2.0147 -4.5,-4.5 0,-2.4853 2.0147186,-4.5 4.5,-4.5 2.4852814,0 4.5,2.0147 4.5,4.5 z"
       sodipodi:ry="4.5"
       sodipodi:rx="4.5"
       sodipodi:cy="1047.8622"
       sodipodi:cx="4.5"
       id="path11539"
       style="fill:none;stroke:#000000;stroke-width:3.75;stroke-miterlimit:4;stroke-opacity:1;stroke-dasharray:none;stroke-dashoffset:0"
       sodipodi:type="arc" />
    <path
       sodipodi:type="arc"
       style="fill:none;stroke:#000000;stroke-width:3.75;stroke-miterlimit:4;stroke-opacity:1;stroke-dasharray:none;stroke-dashoffset:0"
       id="path11541"
       sodipodi:cx="4.5"
       sodipodi:cy="1047.8622"
       sodipodi:rx="4.5"
       sodipodi:ry="4.5"
       d="m 9,1047.8622 c 0,2.4853 -2.0147186,4.5 -4.5,4.5 -2.4852814,0 -4.5,-2.0147 -4.5,-4.5 0,-2.4853 2.0147186,-4.5 4.5,-4.5 2.4852814,0 4.5,2.0147 4.5,4.5 z"
       transform="matrix(0.49411765,0,0,0.49411765,459.92648,-188.57308)" />
    <path
       transform="matrix(0.49411765,0,0,0.49411765,459.92648,-197.55522)"
       d="m 9,1047.8622 c 0,2.4853 -2.0147186,4.5 -4.5,4.5 -2.4852814,0 -4.5,-2.0147 -4.5,-4.5 0,-2.4853 2.0147186,-4.5 4.5,-4.5 2.4852814,0 4.5,2.0147 4.5,4.5 z"
       sodipodi:ry="4.5"
       sodipodi:rx="4.5"
       sodipodi:cy="1047.8622"
       sodipodi:cx="4.5"
       id="path11543"
       style="fill:none;stroke:#000000;stroke-width:3.75;stroke-miterlimit:4;stroke-opacity:1;stroke-dasharray:none;stroke-dashoffset:0"
       sodipodi:type="arc" />
    <path
       sodipodi:type="arc"
       style="fill:none;stroke:#000000;stroke-width:3.75;stroke-miterlimit:4;stroke-opacity:1;stroke-dasharray:none;stroke-dashoffset:0"
       id="path11545"
       sodipodi:cx="4.5"
       sodipodi:cy="1047.8622"
       sodipodi:rx="4.5"
       sodipodi:ry="4.5"
       d="m 9,1047.8622 c 0,2.4853 -2.0147186,4.5 -4.5,4.5 -2.4852814,0 -4.5,-2.0147 -4.5,-4.5 0,-2.4853 2.0147186,-4.5 4.5,-4.5 2.4852814,0 4.5,2.0147 4.5,4.5 z"
       transform="matrix(0.49411765,0,0,0.49411765,459.94434,-206.55522)" />
    <path
       transform="matrix(0.49411765,0,0,0.49411765,459.92648,-215.57308)"
       d="m 9,1047.8622 c 0,2.4853 -2.0147186,4.5 -4.5,4.5 -2.4852814,0 -4.5,-2.0147 -4.5,-4.5 0,-2.4853 2.0147186,-4.5 4.5,-4.5 2.4852814,0 4.5,2.0147 4.5,4.5 z"
       sodipodi:ry="4.5"
       sodipodi:rx="4.5"
       sodipodi:cy="1047.8622"
       sodipodi:cx="4.5"
       id="path11547"
       style="fill:none;stroke:#000000;stroke-width:3.75;stroke-miterlimit:4;stroke-opacity:1;stroke-dasharray:none;stroke-dashoffset:0"
       sodipodi:type="arc" />
    <path
       sodipodi:type="arc"
       style="fill:none;stroke:#000000;stroke-width:3.75;stroke-miterlimit:4;stroke-opacity:1;stroke-dasharray:none;stroke-dashoffset:0"
       id="path11549"
       sodipodi:cx="4.5"
       sodipodi:cy="1047.8622"
       sodipodi:rx="4.5"
       sodipodi:ry="4.5"
       d="m 9,1047.8622 c 0,2.4853 -2.0147186,4.5 -4.5,4.5 -2.4852814,0 -4.5,-2.0147 -4.5,-4.5 0,-2.4853 2.0147186,-4.5 4.5,-4.5 2.4852814,0 4.5,2.0147 4.5,4.5 z"
       transform="matrix(0.49411765,0,0,0.49411765,459.92648,-224.55522)" />
    <path
       transform="matrix(0.49411765,0,0,0.49411765,459.94434,-233.55522)"
       d="m 9,1047.8622 c 0,2.4853 -2.0147186,4.5 -4.5,4.5 -2.4852814,0 -4.5,-2.0147 -4.5,-4.5 0,-2.4853 2.0147186,-4.5 4.5,-4.5 2.4852814,0 4.5,2.0147 4.5,4.5 z"
       sodipodi:ry="4.5"
       sodipodi:rx="4.5"
       sodipodi:cy="1047.8622"
       sodipodi:cx="4.5"
       id="path11551"
       style="fill:none;stroke:#000000;stroke-width:3.75;stroke-miterlimit:4;stroke-opacity:1;stroke-dasharray:none;stroke-dashoffset:0"
       sodipodi:type="arc" />
    <path
       sodipodi:type="arc"
       style="fill:none;stroke:#000000;stroke-width:3.75;stroke-miterlimit:4;stroke-opacity:1;stroke-dasharray:none;stroke-dashoffset:0"
       id="path11553"
       sodipodi:cx="4.5"
       sodipodi:cy="1047.8622"
       sodipodi:rx="4.5"
       sodipodi:ry="4.5"
       d="m 9,1047.8622 c 0,2.4853 -2.0147186,4.5 -4.5,4.5 -2.4852814,0 -4.5,-2.0147 -4.5,-4.5 0,-2.4853 2.0147186,-4.5 4.5,-4.5 2.4852814,0 4.5,2.0147 4.5,4.5 z"
       transform="matrix(0.49411765,0,0,0.49411765,459.92648,-242.57308)" />
    <path
       transform="matrix(0.49411765,0,0,0.49411765,459.92648,-251.55522)"
       d="m 9,1047.8622 c 0,2.4853 -2.0147186,4.5 -4.5,4.5 -2.4852814,0 -4.5,-2.0147 -4.5,-4.5 0,-2.4853 2.0147186,-4.5 4.5,-4.5 2.4852814,0 4.5,2.0147 4.5,4.5 z"
       sodipodi:ry="4.5"
       sodipodi:rx="4.5"
       sodipodi:cy="1047.8622"
       sodipodi:cx="4.5"
       id="path11555"
       style="fill:none;stroke:#000000;stroke-width:3.75;stroke-miterlimit:4;stroke-opacity:1;stroke-dasharray:none;stroke-dashoffset:0"
       sodipodi:type="arc" />
    <path
       transform="matrix(0.49411765,0,0,0.49411765,459.94434,-260.55521)"
       d="m 9,1047.8622 c 0,2.4853 -2.0147186,4.5 -4.5,4.5 -2.4852814,0 -4.5,-2.0147 -4.5,-4.5 0,-2.4853 2.0147186,-4.5 4.5,-4.5 2.4852814,0 4.5,2.0147 4.5,4.5 z"
       sodipodi:ry="4.5"
       sodipodi:rx="4.5"
       sodipodi:cy="1047.8622"
       sodipodi:cx="4.5"
       id="path11557"
       style="fill:none;stroke:#000000;stroke-width:3.75;stroke-miterlimit:4;stroke-opacity:1;stroke-dasharray:none;stroke-dashoffset:0"
       sodipodi:type="arc" />
    <path
       sodipodi:type="arc"
       style="fill:none;stroke:#000000;stroke-width:3.75;stroke-miterlimit:4;stroke-opacity:1;stroke-dasharray:none;stroke-dashoffset:0"
       id="path11559"
       sodipodi:cx="4.5"
       sodipodi:cy="1047.8622"
       sodipodi:rx="4.5"
       sodipodi:ry="4.5"
       d="m 9,1047.8622 c 0,2.4853 -2.0147186,4.5 -4.5,4.5 -2.4852814,0 -4.5,-2.0147 -4.5,-4.5 0,-2.4853 2.0147186,-4.5 4.5,-4.5 2.4852814,0 4.5,2.0147 4.5,4.5 z"
       transform="matrix(0.49411765,0,0,0.49411765,459.92648,-269.57307)" />
  </g>
</svg>
